<?xml version="1.0" encoding="utf-8"?>
<!-- Generator: Adobe Illustrator 22.0.1, SVG Export Plug-In . SVG Version: 6.00 Build 0)  -->
<svg version="1.1" id="Layer_1" xmlns="http://www.w3.org/2000/svg" xmlns:xlink="http://www.w3.org/1999/xlink" x="0px" y="0px"
	 viewBox="0 0 44.7 49" style="enable-background:new 0 0 44.7 49;" xml:space="preserve">
<style type="text/css">
	.st0{fill:#434345;}
</style>
<path class="st0" d="M15.8,21.9h-4.3v4.3h4.3V21.9z M24.5,21.9h-4.3v4.3h4.3V21.9z M33.2,21.9h-4.3v4.3h4.3V21.9z M37.5,6.7h-2.2
	V2.4H31v4.3H13.7V2.4H9.3v4.3H7.2c-2.4,0-4.3,2-4.3,4.3l0,30.3c0,2.4,1.9,4.3,4.3,4.3h30.3c2.4,0,4.3-2,4.3-4.3V11.1
	C41.8,8.7,39.9,6.7,37.5,6.7z M37.5,41.4H7.2V17.6h30.3V41.4z"/>
</svg>
