<?xml version="1.0" encoding="utf-8"?>
<!-- Generator: Adobe Illustrator 22.0.1, SVG Export Plug-In . SVG Version: 6.00 Build 0)  -->
<svg version="1.1" id="Layer_1" xmlns="http://www.w3.org/2000/svg" xmlns:xlink="http://www.w3.org/1999/xlink" x="0px" y="0px"
	 viewBox="0 0 240.1 205.5" style="enable-background:new 0 0 240.1 205.5;" xml:space="preserve">
<style type="text/css">
	.st0{clip-path:url(#XMLID_3_);fill:#D5D6D5;}
	.st1{fill:#FFFFFF;}
	.st2{fill:#FFFFFF;stroke:#FFFFFF;stroke-width:1.5329;}
</style>
<g>
	<g>
		<g>
			<defs>
				<circle id="XMLID_20_" cx="120.1" cy="91.8" r="8.6"/>
			</defs>
			<use xlink:href="#XMLID_20_"  style="overflow:visible;fill:#FFFFFF;"/>
			<clipPath id="XMLID_2_">
				<use xlink:href="#XMLID_20_"  style="overflow:visible;"/>
			</clipPath>
		</g>
		<g>
			<defs>
				<path id="XMLID_17_" d="M175,134.4L112.4,26.1c-2.4-4.2-1-9.5,3.2-11.9l0,0c4.2-2.4,9.5-1,11.9,3.2L190,125.7
					c2.4,4.2,1,9.5-3.2,11.9h0C182.7,140,177.4,138.5,175,134.4z"/>
			</defs>
			<use xlink:href="#XMLID_17_"  style="overflow:visible;fill:#EFECEC;"/>
			<clipPath id="XMLID_3_">
				<use xlink:href="#XMLID_17_"  style="overflow:visible;"/>
			</clipPath>
			<path class="st0" d="M129.4,29.1L67.3,137.6c-2.4,4.2-7.7,5.6-11.9,3.2h0c-4.2-2.4-5.6-7.7-3.2-11.9l62.1-108.5
				c2.4-4.2,7.7-5.6,11.9-3.2l0,0C130.4,19.6,131.8,24.9,129.4,29.1z"/>
		</g>
		<path class="st1" d="M127.5,25.9L65.4,134.5c-2.4,4.2-7.7,5.6-11.9,3.2l0,0c-4.2-2.4-5.6-7.7-3.2-11.9l62.1-108.5
			c2.4-4.2,7.7-5.6,11.9-3.2l0,0C128.4,16.5,129.9,21.8,127.5,25.9z"/>
	</g>
	<g>
		<g>
			<path class="st2" d="M26.7,172.1l-7.9,20.4c-0.3,0.6-0.8,1-1.5,1c-0.9,0-1.6-0.8-1.6-1.6c0-0.2,0-0.4,0.1-0.6l8.4-20.9
				c0.4-1,1.3-1.6,2.5-1.6c1.1,0,2,0.7,2.4,1.6l8.4,20.9c0.1,0.2,0.1,0.4,0.1,0.6c0,0.7-0.7,1.6-1.6,1.6c-0.6,0-1.2-0.4-1.5-1
				L26.7,172.1z"/>
			<path class="st2" d="M168,172.1l-7.9,20.4c-0.3,0.6-0.8,1-1.5,1c-0.9,0-1.6-0.8-1.6-1.6c0-0.2,0-0.4,0.1-0.6l8.4-20.9
				c0.4-1,1.3-1.6,2.5-1.6c1.1,0,2,0.7,2.4,1.6l8.4,20.9c0.1,0.2,0.1,0.4,0.1,0.6c0,0.7-0.7,1.6-1.6,1.6c-0.6,0-1.2-0.4-1.5-1
				L168,172.1z"/>
			<path class="st2" d="M62.3,172c0.3,0.3,0.4,0.7,0.4,1.1c0,0.8-0.6,1.5-1.4,1.5c-0.4,0-0.8-0.1-1-0.5c-1.4-1.7-3.8-2.8-6.1-2.8
				c-5.3,0-9.3,4.1-9.3,9.9c0,5.7,4,9.9,9.3,9.9c2.3,0,4.5-1,6.1-2.8c0.3-0.3,0.7-0.5,1-0.5c0.8,0,1.4,0.7,1.4,1.5
				c0,0.4-0.1,0.7-0.4,1c-1.9,2-4.5,3.4-8.1,3.4c-7,0-12.5-5.1-12.5-12.5c0-7.5,5.5-12.5,12.5-12.5C57.8,168.6,60.4,170,62.3,172z"
				/>
			<path class="st2" d="M89.4,172c0.3,0.3,0.4,0.7,0.4,1.1c0,0.8-0.6,1.5-1.4,1.5c-0.4,0-0.8-0.1-1-0.5c-1.4-1.7-3.8-2.8-6.1-2.8
				c-5.3,0-9.3,4.1-9.3,9.9c0,5.7,4,9.9,9.3,9.9c2.3,0,4.5-1,6.1-2.8c0.3-0.3,0.7-0.5,1-0.5c0.8,0,1.4,0.7,1.4,1.5
				c0,0.4-0.1,0.7-0.4,1c-1.9,2-4.5,3.4-8.1,3.4c-7,0-12.5-5.1-12.5-12.5c0-7.5,5.5-12.5,12.5-12.5C84.9,168.6,87.5,170,89.4,172z"
				/>
			<path class="st2" d="M110.1,193.2h-11c-1.2,0-2.2-1-2.2-2.2v-20.8c0-0.8,0.7-1.5,1.6-1.5c0.8,0,1.5,0.7,1.5,1.5v20.3h10.2
				c0.7,0,1.3,0.6,1.3,1.3C111.4,192.6,110.8,193.2,110.1,193.2z"/>
			<path class="st2" d="M119.5,193.4c-0.8,0-1.5-0.7-1.5-1.5v-21.7c0-0.8,0.7-1.5,1.6-1.5c0.8,0,1.5,0.7,1.5,1.5v21.7
				C121,192.8,120.4,193.4,119.5,193.4z"/>
			<path class="st2" d="M151.4,193.4c-0.8,0-1.5-0.7-1.5-1.5v-18.7l-8.1,19.7c-0.1,0.3-0.4,0.5-0.8,0.5c-0.3,0-0.6-0.2-0.7-0.5
				l-8.1-19.7v18.7c0,0.8-0.7,1.5-1.5,1.5c-0.8,0-1.5-0.7-1.5-1.5v-20.7c0-1.3,1.1-2.4,2.5-2.4c1,0,2,0.6,2.4,1.5l6.9,16.9l7-16.9
				c0.4-0.9,1.4-1.5,2.4-1.5c1.4,0,2.5,1.1,2.5,2.4v20.7C153,192.8,152.3,193.4,151.4,193.4z"/>
			<path class="st2" d="M200.9,171.7h-6.6v20.3c0,0.8-0.7,1.5-1.5,1.5c-0.8,0-1.5-0.7-1.5-1.5v-20.3h-6.6c-0.7,0-1.3-0.6-1.3-1.4
				c0-0.7,0.6-1.3,1.3-1.3h16.2c0.7,0,1.3,0.6,1.3,1.4C202.2,171.1,201.6,171.7,200.9,171.7z"/>
			<path class="st2" d="M223.3,193.2h-12.6c-1.2,0-2.2-1-2.2-2.2v-19.9c0-1.2,1-2.2,2.2-2.2h12.6c0.7,0,1.3,0.6,1.3,1.4
				c0,0.7-0.6,1.3-1.3,1.3h-11.8v7.8H223c0.7,0,1.3,0.6,1.3,1.4c0,0.7-0.6,1.3-1.3,1.3h-11.5v8.4h11.8c0.7,0,1.3,0.6,1.3,1.3
				C224.6,192.6,224,193.2,223.3,193.2z"/>
		</g>
	</g>
</g>
</svg>
